<svg width="73" height="25" viewBox="0 0 73 25" fill="none" xmlns="http://www.w3.org/2000/svg">
<path d="M9.17789 6.41602C4.17895 6.41602 0.133057 10.4709 0.133057 15.481C0.133057 20.4911 4.17895 24.546 9.17789 24.546C14.1768 24.546 18.2227 20.4911 18.2227 15.481C18.2227 10.4709 14.1768 6.41602 9.17789 6.41602ZM9.17789 20.0225C6.67842 20.0225 4.64648 17.986 4.64648 15.481C4.64648 12.976 6.67842 10.9395 9.17789 10.9395C11.6774 10.9395 13.7093 12.976 13.7093 15.481C13.7093 17.986 11.6774 20.0225 9.17789 20.0225Z" fill="#333333"/>
<path d="M25.0738 18.5267C25.0738 17.8059 25.9369 17.4635 26.4404 17.9681C28.7061 20.2749 32.4463 24.2397 32.4643 24.2577C32.5182 24.3117 32.5722 24.4019 32.788 24.4739C32.8779 24.51 33.0217 24.51 33.1836 24.51H37.2654C38.0027 24.51 38.2185 23.663 37.8768 23.2304L31.1157 16.292L30.756 15.9316C29.9828 15.0125 30.0727 14.6521 30.9538 13.7149L36.3124 7.71365C36.6541 7.28113 36.4383 6.45213 35.683 6.45213H31.9788C31.8349 6.45213 31.727 6.45213 31.6192 6.48817C31.4034 6.56026 31.3135 6.63234 31.2595 6.70443C31.2415 6.72245 28.2745 9.93034 26.4404 11.8947C25.9369 12.4354 25.0378 12.0749 25.0378 11.336V1.04558C25.0378 0.522947 24.6063 0.324707 24.2646 0.324707H21.2437C20.7222 0.324707 20.4705 0.667122 20.4705 0.973492V23.7891C20.4705 24.3117 20.902 24.4559 21.2617 24.4559H24.2826C24.7501 24.4559 25.0558 24.1135 25.0558 23.7711V23.5368V18.5267H25.0738Z" fill="#333333"/>
<path d="M49.7448 23.681L49.4211 20.6533C49.3851 20.2388 48.9895 19.9505 48.576 20.0226C48.3422 20.0586 48.1084 20.0766 47.8747 20.0766C45.4651 20.0766 43.5051 18.1843 43.3612 15.7874C43.3612 15.7153 43.3612 15.6252 43.3612 15.5351V11.8226C43.3612 11.336 43.7209 10.9396 44.2064 10.9396H48.2523C48.54 10.9396 48.9716 10.6873 48.9716 10.1646V7.29915C48.9716 6.74047 48.6119 6.45213 48.2882 6.45213H44.2064C43.7389 6.45213 43.3612 6.10971 43.3433 5.64114V1.04558C43.3433 0.757231 43.1275 0.324707 42.57 0.324707H39.5671C39.1895 0.324707 38.8298 0.558991 38.8298 1.02756C38.8298 1.02756 38.8298 15.7153 38.8298 15.7874C38.9557 20.6894 42.9656 24.6001 47.8747 24.6001C48.2883 24.6001 48.6839 24.5641 49.0795 24.51C49.511 24.4559 49.7987 24.0955 49.7448 23.681Z" fill="#333333"/>
<path d="M71.5388 19.8785C68.9854 19.8785 68.5898 18.9594 68.5898 15.5172C68.5898 15.4992 68.5898 15.4992 68.5898 15.4812V7.20918C68.5898 6.92083 68.374 6.43424 67.7986 6.43424H64.7777C64.4001 6.43424 63.9865 6.74061 63.9865 7.20918V7.58763C62.6738 6.83072 61.1454 6.39819 59.527 6.39819C54.5281 6.39819 50.4822 10.4531 50.4822 15.4632C50.4822 20.4732 54.5281 24.5281 59.527 24.5281C61.7747 24.5281 63.8247 23.6991 65.4071 22.3475C66.2522 23.6451 67.6188 24.5101 69.7586 24.5281C70.1183 24.5281 72.0603 24.6002 72.0603 23.6811V20.4552C72.0603 20.1849 71.8445 19.8785 71.5388 19.8785ZM59.545 20.0227C57.0455 20.0227 55.0136 17.9862 55.0136 15.4812C55.0136 12.9762 57.0455 10.9397 59.545 10.9397C62.0445 10.9397 64.0764 12.9762 64.0764 15.4812C64.0584 17.9862 62.0265 20.0227 59.545 20.0227Z" fill="#333333"/>
</svg>
