<svg width="104" height="26" viewBox="0 0 104 26" fill="none" xmlns="http://www.w3.org/2000/svg">
<path d="M12.0499 0.813477V9.01509H4.53175V0.813477H0.964844V20.3919H4.53271V12.4564H12.0489V20.3919H15.6177V0.813477H12.0499ZM27.0378 14.0638C27.0378 14.8485 26.7268 15.6011 26.1731 16.156C25.6194 16.7109 24.8685 17.0227 24.0855 17.0227C23.3025 17.0227 22.5516 16.7109 21.9979 16.156C21.4442 15.6011 21.1332 14.8485 21.1332 14.0638V5.67735H17.7488V14.0638C17.7488 15.7465 18.4158 17.3602 19.6029 18.5501C20.7901 19.7399 22.4003 20.4083 24.0792 20.4083C25.7582 20.4083 27.3683 19.7399 28.5555 18.5501C29.7427 17.3602 30.4097 15.7465 30.4097 14.0638V5.67735H27.0378V14.0638ZM52.1152 6.54154C52.1152 4.82186 53.2498 4.27703 54.4925 4.27703C55.4948 4.27703 56.8177 5.04154 57.6838 5.96864L59.8999 3.34993C58.7933 1.84993 56.5493 0.813477 54.7117 0.813477C51.0396 0.813477 48.3842 2.96864 48.3842 6.54154C48.3842 13.1706 56.4681 11.0667 56.4681 14.777C56.4681 15.9209 55.3596 16.9312 54.0909 16.9312C52.0892 16.9312 51.4403 15.9509 50.521 14.9135L48.0607 17.477C49.6346 19.4125 51.5755 20.3957 53.8997 20.3957C57.3884 20.3957 60.1944 18.2144 60.1944 14.8041C60.1944 7.44541 52.1095 9.73219 52.1095 6.54154H52.1152ZM102.127 17.2641C100.127 17.2641 99.5587 16.397 99.5587 15.0693V9.19025H102.668V6.21154H99.5587V2.28154L96.127 3.82509V15.7999C96.127 18.8628 98.2359 20.4064 101.127 20.4064C101.581 20.4141 102.035 20.3773 102.481 20.298L103.318 17.209C102.94 17.2351 102.507 17.2612 102.127 17.2612V17.2641ZM39.9208 5.77509C38.2445 5.77509 37.0742 6.26283 35.9425 7.37477V0.930573H32.5533V12.8754C32.5533 17.3464 35.7784 20.4102 39.4032 20.4102C43.4239 20.4102 46.9609 17.2922 46.9609 13.0941C46.9609 8.94831 43.7059 5.77799 39.9208 5.77799V5.77509ZM39.8995 16.9912C39.3944 16.9912 38.8942 16.8915 38.4275 16.6978C37.9609 16.504 37.5368 16.2201 37.1797 15.8621C36.8225 15.5041 36.5392 15.0792 36.3459 14.6115C36.1526 14.1438 36.0531 13.6425 36.0531 13.1362C36.0531 12.63 36.1526 12.1287 36.3459 11.661C36.5392 11.1933 36.8225 10.7683 37.1797 10.4103C37.5368 10.0524 37.9609 9.76839 38.4275 9.57466C38.8942 9.38093 39.3944 9.28122 39.8995 9.28122C40.9197 9.28122 41.898 9.68737 42.6194 10.4103C43.3407 11.1333 43.746 12.1138 43.746 13.1362C43.746 14.1586 43.3407 15.1392 42.6194 15.8621C41.898 16.5851 40.9197 16.9912 39.8995 16.9912ZM76.7292 12.9161C76.7292 8.71025 73.2 5.59993 69.1715 5.59993C65.5476 5.59993 62.3216 8.66283 62.3216 13.1348V25.0864H65.7108V18.6335C66.8406 19.7435 68.0128 20.2332 69.6871 20.2332C73.4722 20.2332 76.7282 17.0628 76.7282 12.9161H76.7292ZM73.5196 12.8735C73.5196 13.8959 73.1143 14.8764 72.393 15.5994C71.6716 16.3223 70.6933 16.7285 69.6731 16.7285C68.653 16.7285 67.6746 16.3223 66.9533 15.5994C66.2319 14.8764 65.8267 13.8959 65.8267 12.8735C65.8267 11.8511 66.2319 10.8705 66.9533 10.1476C67.6746 9.42463 68.653 9.01848 69.6731 9.01848C70.6933 9.01848 71.6716 9.42463 72.393 10.1476C73.1143 10.8705 73.5196 11.8511 73.5196 12.8735Z" fill="#333333"/>
</svg>
