<svg width="95" height="25" viewBox="0 0 95 25" fill="none" xmlns="http://www.w3.org/2000/svg">
<path d="M54.0286 8.61318C54.0286 5.87357 54.0763 3.32291 54.2193 0.961182L46.9233 2.33098V2.99227L47.6386 3.08674C48.1632 3.13397 48.497 3.32291 48.6877 3.60632C48.8785 3.93696 49.0215 4.4093 49.1169 5.11782C49.2123 6.48762 49.3076 9.6051 49.26 14.5175C49.26 19.3827 49.2123 22.4529 49.1169 23.6338C51.7397 24.2006 53.7902 24.4367 55.3161 24.4367C58.1773 24.4367 60.4186 23.6338 62.0399 21.9806C63.6612 20.3746 64.5196 18.1073 64.5196 15.3205C64.5196 13.1005 63.8997 11.2583 62.6598 9.79404C61.42 8.32977 59.8463 7.62125 57.9866 7.62125C56.7467 7.62125 55.4592 7.95189 54.0286 8.61318ZM54.1717 23.1614C54.0763 21.6499 53.9809 17.1154 53.9809 9.69957C54.4101 9.55787 54.9823 9.4634 55.6976 9.4634C56.8421 9.4634 57.7481 10.0302 58.4157 11.2111C59.0834 12.3919 59.4172 13.809 59.4172 15.6039C59.4172 17.8239 59.0357 19.6188 58.2727 21.1303C57.5097 22.5946 56.556 23.3504 55.3638 23.3504C54.9823 23.2559 54.6008 23.2087 54.1717 23.1614ZM19.5514 1.43353H0.476807V2.37822L1.47822 2.47269C2.2412 2.61439 2.76575 2.8978 3.09956 3.32291C3.43336 3.79525 3.62411 4.55101 3.67179 5.59017C4.05328 10.6915 4.05328 15.4622 3.67179 19.855C3.57642 20.8942 3.38567 21.6499 3.09956 22.1223C2.76575 22.5946 2.2412 22.878 1.47822 22.9725L0.476807 23.1142V24.0589H12.7799V23.1142L11.4924 23.0197C10.7294 22.9252 10.2048 22.5946 9.87102 22.1695C9.53722 21.6971 9.34647 20.9414 9.29878 19.9022C9.15573 18.0128 9.06035 15.8401 9.06035 13.4311L11.6354 13.4783C13.0183 13.5256 13.972 14.5647 14.4489 16.643H15.4026V8.94382H14.4489C13.972 10.9749 13.066 12.0141 11.6354 12.0613L9.06035 12.1085C9.06035 7.85742 9.15573 4.83441 9.29878 2.99227H13.066C15.7364 2.99227 17.5485 4.69271 18.5976 8.0936L19.7421 7.76296L19.5514 1.43353ZM17.3101 15.9818C17.3101 18.438 18.0254 20.469 19.4083 22.075C20.7912 23.681 22.8417 24.4367 25.4168 24.4367C27.9918 24.4367 30.09 23.6338 31.616 21.9806C33.142 20.3746 33.8573 18.3435 33.8573 15.8873C33.8573 13.4311 33.142 11.4 31.7591 9.79404C30.3762 8.18807 28.3256 7.43231 25.7506 7.43231C23.1755 7.43231 21.0773 8.2353 19.5514 9.88851C18.0254 11.4945 17.3101 13.5256 17.3101 15.9818ZM27.9442 10.597C28.5164 11.9668 28.7548 13.7617 28.7548 15.9345C28.7548 20.9414 27.7057 23.3976 25.6552 23.3976C24.6061 23.3976 23.7954 22.6891 23.2232 21.272C22.651 19.855 22.4125 18.0601 22.4125 15.9345C22.4125 10.9749 23.4616 8.51871 25.5121 8.51871C26.5612 8.47147 27.3719 9.17999 27.9442 10.597ZM68.2391 22.075C69.8128 23.6338 71.8156 24.4367 74.1999 24.4367C75.6782 24.4367 76.9657 24.1533 78.1102 23.5393C79.2547 22.9725 80.1607 22.264 80.7806 21.4137L80.3038 20.8469C79.2547 21.6499 78.0625 22.0278 76.6796 22.0278C74.7722 22.0278 73.2939 21.4137 72.2925 20.1384C71.2434 18.8631 70.7665 17.2571 70.8619 15.1788H81.0668C81.0668 12.9115 80.4945 11.0694 79.3024 9.6051C78.1102 8.18807 76.4412 7.47955 74.2953 7.47955C71.6249 7.47955 69.5743 8.32977 68.0961 9.98298C66.6178 11.6362 65.9025 13.6673 65.9025 16.0762C65.9025 18.5324 66.6655 20.5163 68.2391 22.075ZM71.7679 10.2192C72.2925 9.08552 72.9601 8.51871 73.8661 8.51871C75.2967 8.51871 76.012 10.3136 76.012 13.9507L70.9573 14.0451C71.0049 12.6281 71.2434 11.3528 71.7679 10.2192ZM93.8944 8.32977C92.6069 7.76296 90.9855 7.43231 89.0304 7.43231C87.0276 7.43231 85.4539 7.95189 84.2617 8.94382C83.0696 9.93574 82.4497 11.1638 82.4497 12.6281C82.4497 13.9034 82.8312 14.8954 83.5465 15.6039C84.2617 16.3124 85.4062 16.9265 86.8845 17.446C88.2197 17.9184 89.1734 18.3907 89.6503 18.8158C90.1272 19.2882 90.4133 19.8078 90.4133 20.5163C90.4133 21.1776 90.1749 21.7916 89.6503 22.264C89.1734 22.7835 88.5058 23.0197 87.6475 23.0197C85.5493 23.0197 83.9756 21.5082 82.8788 18.4852L82.0682 18.7214L82.2589 23.4448C83.9756 24.1061 85.8831 24.4367 87.9813 24.4367C90.1749 24.4367 91.8439 23.9644 93.0837 22.9725C94.3236 22.0278 94.9435 20.658 94.9435 18.9575C94.9435 17.8239 94.6574 16.8792 94.0375 16.1707C93.4175 15.4622 92.4161 14.8481 90.9855 14.2813C89.4119 13.7145 88.3151 13.1949 87.7429 12.7226C87.1706 12.2502 86.8845 11.6834 86.8845 10.9749C86.8845 10.2664 87.0752 9.69957 87.5044 9.22723C87.9336 8.75488 88.4581 8.56594 89.1258 8.56594C91.0332 8.56594 92.4161 9.93575 93.2745 12.6281L94.0851 12.3919L93.8944 8.32977ZM48.0201 7.90466C47.3525 7.57402 46.6372 7.43231 45.8265 7.43231C45.0159 7.43231 44.2052 7.76296 43.2992 8.42424C42.3931 9.08552 41.7255 9.98298 41.201 11.2111L41.2486 7.43231L34.0003 8.84935V9.51063L34.7156 9.55787C35.6217 9.65234 36.1462 10.3609 36.2416 11.6362C36.5277 14.5647 36.5277 17.6822 36.2416 20.9886C36.1462 22.264 35.6217 22.9252 34.7156 23.0669L34.0003 23.1614V24.0589H44.1098V23.1614L42.8223 23.0669C41.9163 22.9725 41.3917 22.264 41.2963 20.9886C41.0102 18.249 40.9625 15.3205 41.201 12.2975C41.4871 11.8251 42.107 11.5417 43.0607 11.4473C44.0145 11.3528 45.1112 11.6362 46.2557 12.2975L48.0201 7.90466Z" fill="#333333"/>
</svg>
