<svg width="33" height="33" viewBox="0 0 33 33" fill="none" xmlns="http://www.w3.org/2000/svg">
<path d="M16.1338 3.88623C12.7726 3.88629 9.54205 5.18819 7.12003 7.51875C4.69802 9.84931 3.2728 13.0274 3.14343 16.3861C3.01406 19.7448 4.1906 23.0231 6.42616 25.533C8.66173 28.043 11.7826 29.5895 15.1338 29.8481V19.8863H12.1338C11.8686 19.8863 11.6142 19.781 11.4267 19.5935C11.2391 19.4059 11.1338 19.1516 11.1338 18.8863C11.1338 18.6211 11.2391 18.3668 11.4267 18.1792C11.6142 17.9917 11.8686 17.8863 12.1338 17.8863H15.1338V14.8863C15.135 13.8259 15.5568 12.8091 16.3067 12.0593C17.0566 11.3094 18.0733 10.8876 19.1338 10.8863H21.1338C21.399 10.8863 21.6534 10.9917 21.8409 11.1792C22.0284 11.3668 22.1338 11.6211 22.1338 11.8863C22.1338 12.1516 22.0284 12.4059 21.8409 12.5935C21.6534 12.781 21.399 12.8863 21.1338 12.8863H19.1338C18.6035 12.887 18.0952 13.0979 17.7202 13.4728C17.3453 13.8477 17.1344 14.3561 17.1338 14.8863V17.8863H20.1338C20.399 17.8863 20.6534 17.9917 20.8409 18.1792C21.0284 18.3668 21.1338 18.6211 21.1338 18.8863C21.1338 19.1516 21.0284 19.4059 20.8409 19.5935C20.6534 19.781 20.399 19.8863 20.1338 19.8863H17.1338V29.8481C20.485 29.5895 23.6058 28.043 25.8414 25.533C28.0769 23.0231 29.2535 19.7448 29.1241 16.3861C28.9947 13.0274 27.5695 9.84933 25.1475 7.51877C22.7255 5.18821 19.495 3.8863 16.1338 3.88623Z" fill="#E1E7FA"/>
</svg>
