<svg width="33" height="33" viewBox="0 0 33 33" fill="none" xmlns="http://www.w3.org/2000/svg">
<path d="M16.1338 20.0713C18.3429 20.0713 20.1338 18.2804 20.1338 16.0713C20.1338 13.8621 18.3429 12.0713 16.1338 12.0713C13.9246 12.0713 12.1338 13.8621 12.1338 16.0713C12.1338 18.2804 13.9246 20.0713 16.1338 20.0713Z" fill="#E1E7FA"/>
<path d="M21.6338 3.57129H10.6338C8.77792 3.57339 6.99866 4.31156 5.68636 5.62386C4.37406 6.93616 3.63589 8.71542 3.63379 10.5713V21.5713C3.63589 23.4272 4.37406 25.2064 5.68636 26.5187C6.99866 27.831 8.77792 28.5692 10.6338 28.5713H21.6338C23.4897 28.5692 25.2689 27.831 26.5812 26.5187C27.8935 25.2064 28.6317 23.4272 28.6338 21.5713V10.5713C28.6317 8.71542 27.8935 6.93616 26.5812 5.62386C25.2689 4.31156 23.4897 3.57339 21.6338 3.57129ZM16.1338 22.0713C14.9471 22.0713 13.7871 21.7194 12.8004 21.0601C11.8137 20.4008 11.0446 19.4637 10.5905 18.3674C10.1364 17.271 10.0176 16.0646 10.2491 14.9007C10.4806 13.7369 11.052 12.6678 11.8911 11.8286C12.7303 10.9895 13.7994 10.4181 14.9632 10.1866C16.1271 9.95507 17.3335 10.0739 18.4299 10.528C19.5262 10.9821 20.4633 11.7512 21.1226 12.7379C21.7819 13.7246 22.1338 14.8846 22.1338 16.0713C22.132 17.662 21.4993 19.1871 20.3744 20.3119C19.2496 21.4368 17.7245 22.0695 16.1338 22.0713ZM22.6338 11.0713C22.3371 11.0713 22.0471 10.9833 21.8004 10.8185C21.5538 10.6537 21.3615 10.4194 21.248 10.1453C21.1344 9.87122 21.1047 9.56962 21.1626 9.27865C21.2205 8.98768 21.3634 8.72041 21.5731 8.51063C21.7829 8.30085 22.0502 8.15799 22.3412 8.10011C22.6321 8.04223 22.9337 8.07194 23.2078 8.18547C23.4819 8.299 23.7162 8.49126 23.881 8.73793C24.0458 8.98461 24.1338 9.27462 24.1338 9.57129C24.1338 9.96911 23.9758 10.3506 23.6944 10.6319C23.4131 10.9133 23.0316 11.0713 22.6338 11.0713Z" fill="#E1E7FA"/>
</svg>
