<svg width="33" height="33" viewBox="0 0 33 33" fill="none" xmlns="http://www.w3.org/2000/svg">
<path d="M30.841 10.5935L27.0705 14.3641C26.3177 23.0992 18.9511 29.8864 10.1339 29.8864C8.3183 29.8864 6.82209 29.5986 5.68665 29.0308C4.77033 28.5727 4.39496 28.0809 4.30182 27.9411C4.21826 27.8158 4.1641 27.6732 4.14338 27.524C4.12265 27.3747 4.13591 27.2228 4.18215 27.0794C4.22838 26.9361 4.30642 26.805 4.41041 26.696C4.5144 26.587 4.64168 26.503 4.78272 26.4501C4.81489 26.4379 7.76374 25.3053 9.66962 23.149C8.48416 22.3048 7.4408 21.2771 6.5788 20.1046C4.8653 17.7792 3.05305 13.7407 4.14997 7.7075C4.18262 7.52795 4.26378 7.36076 4.38465 7.22404C4.50553 7.08732 4.66151 6.98628 4.83571 6.93187C5.0099 6.87746 5.19567 6.87175 5.37287 6.91537C5.55008 6.95898 5.71197 7.05026 5.84101 7.17931C5.88508 7.22325 10.0463 11.3257 15.1332 12.6508L15.1339 11.8859C15.1446 10.2848 15.7907 8.75353 16.9301 7.62861C18.0694 6.50368 19.6088 5.87719 21.2099 5.88683C22.25 5.90123 23.2686 6.18517 24.1662 6.7109C25.0638 7.23663 25.8097 7.98618 26.331 8.88634L30.1339 8.8864C30.3316 8.8864 30.525 8.94505 30.6894 9.05493C30.8539 9.1648 30.982 9.32098 31.0577 9.5037C31.1334 9.68642 31.1532 9.88749 31.1147 10.0815C31.0761 10.2754 30.9809 10.4536 30.841 10.5935Z" fill="#E1E7FA"/>
</svg>
