<svg width="33" height="33" viewBox="0 0 33 33" fill="none" xmlns="http://www.w3.org/2000/svg">
<path d="M29.4251 8.83955C29.3065 8.37961 29.0803 7.95447 28.765 7.5992C28.4498 7.24392 28.0546 6.96871 27.612 6.79627C23.3283 5.15016 16.5062 5.16389 16.1338 5.16584C15.7615 5.16285 8.93939 5.15009 4.65564 6.79627C4.21309 6.96871 3.81788 7.2439 3.50263 7.59915C3.18738 7.9544 2.96113 8.37951 2.84253 8.83943C2.51916 10.0808 2.13379 12.3506 2.13379 16.1149C2.13379 19.8791 2.51916 22.1489 2.84247 23.3902C2.96104 23.8501 3.18729 24.2753 3.50254 24.6306C3.8178 24.9858 4.21301 25.261 4.65558 25.4335C8.75635 27.0093 15.1833 27.0642 16.0515 27.0642C16.129 27.0642 16.1386 27.0642 16.2161 27.0642C17.085 27.0641 23.5114 27.0092 27.6119 25.4335C28.0545 25.261 28.4497 24.9859 28.7649 24.6306C29.0802 24.2754 29.3065 23.8502 29.4251 23.3903C29.7484 22.149 30.1338 19.8792 30.1338 16.1149C30.1338 12.3507 29.7484 10.0808 29.4251 8.83955ZM20.4111 16.5309L14.4111 20.5309C14.3358 20.5811 14.2483 20.6099 14.1579 20.6143C14.0675 20.6187 13.9776 20.5984 13.8978 20.5557C13.818 20.513 13.7513 20.4495 13.7048 20.3718C13.6583 20.2942 13.6338 20.2054 13.6338 20.1149V12.1149C13.6338 12.0244 13.6583 11.9356 13.7048 11.8579C13.7513 11.7803 13.818 11.7167 13.8978 11.674C13.9776 11.6313 14.0675 11.6111 14.1579 11.6154C14.2483 11.6198 14.3358 11.6486 14.4111 11.6989L20.4111 15.6989C20.4796 15.7445 20.5358 15.8064 20.5746 15.879C20.6135 15.9515 20.6338 16.0326 20.6338 16.1149C20.6338 16.1972 20.6135 16.2782 20.5746 16.3508C20.5358 16.4234 20.4796 16.4852 20.4111 16.5309Z" fill="#E1E7FA"/>
</svg>
