<svg width="299" height="91" viewBox="0 0 299 91" fill="none" xmlns="http://www.w3.org/2000/svg">
<path fill-rule="evenodd" clip-rule="evenodd" d="M0.955778 47.8967C1.44187 47.2163 2.16469 46.1491 2.56168 45.5255C3.39288 44.2196 5.30666 43.9948 5.30666 45.2035C5.30666 45.7556 5.62584 45.9392 6.30411 45.7779C7.51236 45.4901 7.6141 46.0946 6.47567 46.8006C5.84861 47.1895 5.83864 47.3845 6.43245 47.6121C7.36939 47.9713 7.54361 56.3503 6.61399 56.3503C6.2835 56.3503 6.17378 56.0909 6.37061 55.7734C6.56677 55.4563 6.40785 55.074 6.01685 54.9243C5.57265 54.754 5.30666 55.1239 5.30666 55.9136C5.30666 56.7598 5.63516 57.175 6.30411 57.175C6.85271 57.175 7.30156 57.4534 7.30156 57.7936C7.30156 58.1338 7.75042 58.4122 8.29902 58.4122C9.65355 58.4122 9.55846 59.1012 8.13277 59.6163C7.03757 60.0117 7.03691 60.0373 8.12014 60.0493C8.83099 60.0567 9.41948 60.4955 9.65821 61.1957C9.871 61.8192 10.1835 62.752 10.3524 63.2678C10.522 63.7841 11.2508 64.5726 11.973 65.0204C13.4718 65.9499 13.67 66.6406 12.4551 66.7008C11.9982 66.7235 12.348 66.8674 13.2324 67.0208C15.3204 67.3825 15.8956 69.3738 14.1494 70.1949C12.4644 70.987 11.9563 70.9165 11.9563 69.8897C11.9563 69.3986 11.7615 69.1173 11.5234 69.265C10.9336 69.6307 9.34368 68.2732 9.31774 67.3812C9.30577 66.9841 8.84761 66.6596 8.29902 66.6596C7.3541 66.6596 7.03292 66.2089 7.23307 65.1639C7.28228 64.9078 6.41982 64.0996 5.3173 63.3676C4.21412 62.6353 3.31176 61.6031 3.31176 61.0732C3.31176 60.5437 3.01851 59.9981 2.66009 59.8608C2.24848 59.7029 2.29768 59.3243 2.79441 58.8307C3.40685 58.2229 3.3869 57.8262 2.70265 57.0336C2.21988 56.4744 2.02771 55.8134 2.27508 55.5647C2.52244 55.3165 2.44265 55.1132 2.09686 55.1132C1.75041 55.1132 1.33614 54.5565 1.17522 53.8761C1.01429 53.1957 1.12933 52.639 1.43189 52.639C1.73446 52.639 1.98182 52.0711 1.98182 51.3775C1.98182 50.6839 1.71384 50.2187 1.38668 50.3441C0.931174 50.519 -0.195946 49.5713 0.0294776 49.2031C0.0527514 49.1651 0.469687 48.5771 0.955778 47.8967ZM3.01651 42.4328C4.41361 41.6361 5.81735 41.7771 4.51734 42.5837C3.92619 42.9503 3.14352 43.182 2.77779 43.0992C2.39211 43.0117 2.49318 42.7313 3.01651 42.4328ZM3.75529 39.7181C3.99867 39.5668 4.89638 39.4431 5.75019 39.4431C6.60335 39.4431 7.30156 39.2575 7.30156 39.0307C7.30156 38.8039 6.81813 38.6183 6.22631 38.6183C5.43633 38.6183 5.25745 38.3726 5.5527 37.6905C5.7728 37.18 5.95766 36.6233 5.96232 36.4534C5.96764 36.2835 6.68514 36.1441 7.55624 36.1441C9.3224 36.1441 10.1583 35.022 9.19074 33.9503C8.51513 33.2018 9.12956 31.1956 10.0333 31.1956C10.3597 31.1956 10.6264 30.9519 10.6264 30.6542C10.6264 29.888 14.1341 27.8967 15.484 27.8967C16.1037 27.8967 16.6111 28.1177 16.6111 28.3878C16.6111 28.6579 17.0507 28.5189 17.5873 28.0785C18.5109 27.3214 18.5648 27.3507 18.5847 28.6183C18.6053 29.9231 17.7795 30.3849 16.9369 29.5395C16.7069 29.309 16.1982 29.2435 15.8052 29.394C15.3896 29.5532 15.8956 29.9292 17.0147 30.2934C18.1026 30.6472 18.5774 30.9944 18.1073 31.0917C17.6505 31.1866 17.2761 31.5045 17.2761 31.7981C17.2761 32.0917 16.8219 32.5655 16.2667 32.8513C15.7107 33.1371 14.7884 33.9833 14.2159 34.7313C13.6434 35.4798 12.8261 36.041 12.3992 35.9791C11.973 35.9173 11.8486 35.9449 12.1226 36.0398C12.3965 36.135 12.6213 36.5375 12.6213 36.9346C12.6213 37.3313 12.3965 37.7932 12.1226 37.9606C11.8486 38.128 11.3133 38.8262 10.9343 39.5119C10.2932 40.6703 9.99867 40.7639 6.77823 40.8303C3.55979 40.8971 2.48919 40.5029 3.75529 39.7181ZM4.64169 53.8761C5.00743 53.8761 5.30666 53.6794 5.30666 53.4394C5.30666 53.1994 5.00743 53.1173 4.64169 53.2575C4.27596 53.3977 3.97673 53.594 3.97673 53.6942C3.97673 53.7944 4.27596 53.8761 4.64169 53.8761ZM5.84329 50.794C6.0481 50.6674 5.84395 50.3346 5.38912 50.0546C4.73213 49.6505 4.65632 49.6979 5.01673 50.2856C5.26676 50.6922 5.63848 50.921 5.84329 50.794ZM7.96653 34.4946C8.33226 34.4946 8.6315 34.6802 8.6315 34.907C8.6315 35.1338 8.33226 35.3194 7.96653 35.3194C7.6008 35.3194 7.30156 35.1338 7.30156 34.907C7.30156 34.6802 7.6008 34.4946 7.96653 34.4946ZM9.11626 38.0427C9.79253 37.6237 8.77447 37.2777 7.87743 37.6216C7.19916 37.8814 7.19916 37.9787 7.87476 38.1181C8.33692 38.2138 8.89549 38.1796 9.11626 38.0427ZM11.9563 32.2266C12.3221 32.3668 12.6213 32.1919 12.6213 31.8385C12.6213 31.4851 12.3221 31.1956 11.9563 31.1956C11.5906 31.1956 11.2914 31.3701 11.2914 31.5837C11.2914 31.7973 11.5906 32.0864 11.9563 32.2266ZM14.3256 70.6885C15.1961 70.1491 18.2822 71.081 18.4863 71.945C18.6027 72.4402 19.1267 72.8452 19.65 72.8452C20.1727 72.8452 20.6009 73.1235 20.6009 73.4637C20.6009 73.8039 20.9321 74.0823 21.3364 74.0823C22.4043 74.0823 24.9598 76.2274 24.7064 76.9111C24.5648 77.2934 24.8507 77.4076 25.5383 77.2439C26.317 77.0588 26.5856 77.2559 26.5856 78.0126C26.5856 79.4324 24.6426 79.3388 22.0352 77.7936C20.8875 77.1132 19.5303 76.5565 19.0203 76.5565C18.5103 76.5565 17.6152 75.9326 17.0314 75.1701C16.4482 74.4076 15.5166 73.5495 14.9607 73.2637C13.9752 72.7565 13.5789 71.1516 14.3256 70.6885ZM17.6086 25.6855C18.1572 25.8162 18.606 25.7177 18.606 25.4666C18.606 25.2154 19.1972 25.0101 19.9193 25.0101C21.0238 25.0101 21.1695 24.8134 20.8336 23.7729C20.5284 22.8266 20.6754 22.5358 21.4601 22.5358C22.0239 22.5358 22.6005 22.3206 22.7421 22.0579C23.04 21.5028 28.5805 22.8562 28.5805 23.4839C28.5805 23.6913 28.1077 23.7486 27.5305 23.6113C26.9527 23.474 25.7458 23.4756 24.8494 23.615C23.4264 23.8364 23.3526 23.9301 24.2735 24.3474C25.5576 24.9296 24.9791 26.088 23.2648 26.3659C22.3451 26.5152 22.127 26.3944 22.411 25.8913C22.7208 25.342 22.6244 25.3123 21.8956 25.7317C20.8436 26.3371 16.6111 26.4299 16.6111 25.8476C16.6111 25.6282 17.06 25.5552 17.6086 25.6855ZM25.5882 79.8555C26.1368 79.8555 26.5856 79.6699 26.5856 79.4431C26.5856 79.2163 27.0345 79.0307 27.5831 79.0307C28.1317 79.0307 28.5805 78.8452 28.5805 78.6184C28.5805 77.8794 29.8101 78.1846 30.2429 79.0307C30.4863 79.5066 31.279 79.8691 32.1162 79.8881C32.9148 79.9058 33.1941 80.0142 32.7366 80.1285C32.2797 80.2431 31.9054 80.8006 31.9054 81.3676C31.9054 82.6316 30.338 82.4608 30.0302 81.1635C29.824 80.2942 28.7262 80.0588 25.7544 80.2464C25.1141 80.2868 24.5907 80.2151 24.5907 80.0876C24.5907 79.9598 25.0396 79.8555 25.5882 79.8555ZM29.6172 20.474C30.1871 20.474 30.469 20.6595 30.2429 20.8863C30.0169 21.1131 29.5507 21.2987 29.2063 21.2987C28.8618 21.2987 28.5805 21.1131 28.5805 20.8863C28.5805 20.6595 29.0473 20.474 29.6172 20.474ZM33.6755 80.7833C34.0738 80.1714 35.8952 80.0868 35.8952 80.6802C35.8952 80.907 36.4617 81.0926 37.154 81.0926C37.8462 81.0926 38.6102 81.4122 38.8523 81.8027C39.2253 82.406 39.3816 82.4225 39.891 81.9111C40.3937 81.4072 40.7109 81.4567 41.8546 82.218C42.6745 82.7635 43.6427 83.0258 44.2791 82.874C44.8623 82.7355 45.5332 82.7883 45.7706 82.9912C46.6164 83.7153 49.1586 84.3743 50.174 84.1326C50.7419 83.9973 51.6595 84.1202 52.2135 84.4052C52.7674 84.6905 54.7836 84.971 56.6934 85.0287C58.6038 85.086 60.3161 85.1738 60.499 85.2237C60.6818 85.2732 61.0336 85.2967 61.2803 85.2757C61.527 85.2543 63.1489 85.5021 64.8844 85.8262C66.6207 86.1499 68.2891 86.3198 68.5923 86.2035C68.8955 86.0877 69.1435 86.1891 69.1435 86.4291C69.1435 86.6691 69.6104 86.8658 70.1802 86.8658C70.7501 86.8658 71.0321 87.0514 70.806 87.2782C70.3478 87.738 71.9876 87.8509 72.7011 87.4089C72.9512 87.2538 74.8709 87.1046 76.9682 87.0769C79.0649 87.0493 81.0797 86.9685 81.4454 86.8971C83.2568 86.5454 85.2537 86.9289 85.5749 87.6905C85.9759 88.6406 86.978 88.7763 87.4893 87.9495C87.8717 87.3322 93.0983 86.7371 94.7288 87.1252C95.2861 87.258 95.7423 87.6295 95.7423 87.9516C95.7423 88.4534 96.0016 88.4551 97.5709 87.9639C99.5425 87.347 104.745 86.813 105.319 87.1689C105.512 87.2885 106.757 87.4274 108.087 87.4773C109.416 87.5277 110.699 87.7631 110.937 88.0007C111.774 88.8374 115.026 88.792 115.026 87.9433C115.026 87.6279 115.889 87.293 116.952 87.1965C118.346 87.0695 118.785 87.1709 118.543 87.5619C118.342 87.8877 118.7 88.1054 119.444 88.1091C120.375 88.1141 120.46 88.2015 119.791 88.4646C119.117 88.7297 119.236 88.867 120.29 89.0382C121.881 89.2959 121.949 89.1903 120.945 88.0262C120.401 87.3961 120.409 87.2534 120.974 87.4699C121.392 87.6303 122.133 87.5561 122.622 87.305C123.245 86.9841 124.041 86.9734 125.295 87.2695C127.704 87.8369 128.326 87.8002 128.326 87.0905C128.326 86.3767 132.773 85.7474 133.711 86.3289C134.469 86.799 138.3 86.5153 138.3 85.9895C138.3 85.7858 139.51 85.7388 140.987 85.8856C143.168 86.1017 143.849 86.0052 144.597 85.3747C145.463 84.6464 145.548 84.6427 145.971 85.3194C146.495 86.1573 147.61 86.2876 147.61 85.5107C147.61 85.2192 148.134 84.9611 148.773 84.9371C150.363 84.8773 154.963 84.8246 156.587 84.8476C157.318 84.8575 160.156 84.5751 162.891 84.2188C167.645 83.6006 170.114 83.6707 170.923 84.4476C171.273 84.7837 175.148 83.7487 177.683 82.6419C178.579 82.2505 179.293 82.2497 180.947 82.6365C182.724 83.0526 183.186 83.0299 183.817 82.4942C184.984 81.5054 188.339 82.552 187.806 83.7388C187.496 84.4303 187.559 84.4769 188.128 83.9792C188.517 83.639 188.657 82.8039 188.439 82.1235C188.06 80.9375 188.086 80.9206 189.084 81.7112C189.993 82.4312 190.128 82.4464 190.146 81.8316C190.164 81.2303 190.817 81.14 194.598 81.213C197.654 81.272 199.115 81.1388 199.308 80.7833C199.462 80.5 199.99 80.2678 200.481 80.2678C200.973 80.2678 201.471 79.9718 201.59 79.6101C201.773 79.0468 202.069 79.081 203.633 79.846C204.639 80.3379 205.462 80.5318 205.462 80.2773C205.462 79.9714 206.476 79.8885 208.454 80.0328C210.811 80.2048 211.447 80.1215 211.447 79.641C211.447 79.3054 211.157 79.0307 210.802 79.0307C210.448 79.0307 210.331 78.7524 210.541 78.4122C211 77.6711 213.521 77.5953 214.638 78.2885C215.259 78.6732 215.436 78.6716 215.436 78.2806C215.436 77.9503 216.006 77.8666 217.099 78.0365C218.054 78.1854 218.761 78.1173 218.761 77.8769C218.761 77.6468 219.306 77.5466 219.971 77.6546C220.637 77.7627 221.571 77.5598 222.047 77.2039C222.524 76.8476 223.589 76.5565 224.413 76.5565C225.238 76.5565 226.297 76.2699 226.766 75.919C227.235 75.5685 228.031 75.38 228.534 75.4996C229.037 75.6192 230.635 75.4641 232.085 75.1544C233.534 74.8443 234.72 74.7549 234.72 74.9553C234.72 75.6761 236.711 75.2971 238.853 74.1689C242.556 72.2192 246.85 71.4155 247.58 72.5359C247.78 72.8439 247.936 72.7606 247.967 72.3297C247.996 71.9326 248.469 71.608 249.017 71.608C249.566 71.608 250.015 71.4435 250.015 71.2427C250.015 70.7111 254.259 69.5462 256.195 69.5462C257.107 69.5462 258.024 69.2678 258.235 68.9276C258.445 68.5874 258.958 68.3091 259.373 68.3091C259.79 68.3091 261.033 67.8373 262.138 67.2612C264.364 66.0996 265.745 66.1247 265.447 67.321C265.338 67.7619 265.483 67.9231 265.78 67.6905C266.07 67.4637 266.905 67.0678 267.636 66.8109C268.368 66.554 268.877 66.0414 268.769 65.6715C268.66 65.3016 269.034 64.8889 269.6 64.7544C270.166 64.6196 270.633 64.2047 270.639 63.832C270.647 63.3004 270.771 63.2736 271.215 63.7078C272.072 64.5462 274.412 63.4839 274.876 62.0468C275.181 61.1 275.599 60.8864 277.146 60.8864C278.31 60.8864 279.646 60.4868 280.61 59.8509C281.795 59.0691 282.321 58.9429 282.761 59.3354C283.114 59.6509 283.176 59.328 282.918 58.5152C282.582 57.4575 282.714 57.175 283.543 57.175C284.231 57.175 284.593 56.8047 284.593 56.0996C284.593 55.1441 284.797 55.0501 286.422 55.2583C287.427 55.3874 287.877 55.3919 287.419 55.2686C286.435 55.0031 286.289 53.0513 287.253 53.0513C287.619 53.0513 287.918 52.8018 287.918 52.4967C287.918 52.1915 288.456 51.6402 289.113 51.2711C289.998 50.7746 290.281 50.0583 290.202 48.5161C290.144 47.3697 290.315 46.3478 290.582 46.2455C290.85 46.1429 290.822 45.2662 290.52 44.2975C289.676 41.5915 289.798 40.9119 291.308 39.907C292.641 39.0196 292.652 38.9433 291.537 38.18C290.896 37.7408 290.579 37.3812 290.833 37.3812C291.087 37.3812 290.665 36.9639 289.895 36.4534C289.045 35.8888 288.607 35.1631 288.779 34.6002C288.935 34.0913 288.67 33.4736 288.191 33.227C287.712 32.9808 286.983 32.1445 286.571 31.3688C286.158 30.5931 285.544 29.9585 285.206 29.9585C284.869 29.9585 284.593 29.5676 284.593 29.0896C284.593 28.5313 284.273 28.2967 283.699 28.4336C283.207 28.5507 282.384 28.2711 281.87 27.8121C281.356 27.3536 279.97 26.3032 278.79 25.4785C277.61 24.6538 276.637 23.8327 276.629 23.6533C276.62 23.4744 275.416 22.6002 273.954 21.7111C272.491 20.822 271.294 19.9012 271.294 19.6657C271.294 19.4298 270.741 19.2368 270.066 19.2368C268.469 19.2368 264.802 18.0975 264.153 17.3993C263.875 17.0999 263.055 16.7857 262.333 16.702C261.611 16.6179 260.676 16.1214 260.256 15.5989C259.836 15.0764 259.302 14.6674 259.068 14.69C258.022 14.7915 253.251 13.688 252.585 13.1907C252.179 12.8871 251.481 12.6389 251.034 12.6389C249.971 12.6389 248.243 11.4146 247.833 10.3709C247.53 9.60013 247.504 9.60426 247.432 10.4397C247.324 11.6859 246.083 11.8166 243.365 10.8669C242.085 10.4195 239.99 9.96797 238.71 9.86364C237.43 9.7589 235.485 9.42776 234.388 9.12715C231.174 8.24673 228.194 7.81168 223.397 7.52302C222.473 7.46694 221.149 7.22446 220.456 6.98405C219.584 6.68178 218.592 6.67683 217.244 6.96797C215.736 7.29374 215.164 7.25993 214.724 6.81828C214.346 6.43807 212.796 6.23766 210.089 6.2191C207.355 6.20013 205.833 6.00096 205.445 5.61209C204.966 5.13168 204.796 5.14982 204.444 5.71972C204.105 6.26776 203.68 6.32632 202.337 6.00962C201.411 5.79147 199.143 5.73704 197.296 5.88921C194.346 6.13168 193.989 6.08261 194.36 5.48467C194.591 5.11023 194.516 4.80384 194.192 4.80384C193.868 4.80384 193.504 4.9758 193.381 5.1857C193.249 5.41374 191.865 5.38281 189.946 5.10817C187.631 4.77786 186.407 4.77415 185.577 5.0958C184.942 5.34158 183.589 5.44384 182.57 5.32302C181.389 5.18323 180.501 5.31106 180.123 5.67518C179.666 6.11436 179.406 6.13044 179.003 5.74487C178.361 5.13003 172.378 5.14529 170.776 5.76591C169.959 6.08261 169.201 6.07436 168.099 5.73786C165.664 4.99395 163.569 4.71394 163.569 5.13291C163.569 5.34446 162.185 5.44591 160.494 5.35848C158.803 5.27147 157.083 5.36755 156.671 5.57292C155.31 6.25003 151.723 6.51312 149.362 6.109C147.464 5.78405 147.103 5.81704 147.395 6.28838C147.801 6.94405 146.576 7.08343 145.947 6.45333C145.314 5.81787 141.414 5.92921 141.811 6.57127C142.17 7.15106 142.184 7.14941 134.975 7.39106C132.232 7.48302 129.174 7.80096 128.179 8.09746C126.715 8.53375 126.176 8.53663 125.353 8.11313C124.659 7.7556 124.336 7.73663 124.336 8.05251C124.336 8.30694 123.475 8.51519 122.422 8.51519C121.37 8.51519 120.129 8.79931 119.664 9.14694C119.168 9.51684 117.826 9.76303 116.423 9.74117C113.666 9.6987 108.899 10.3931 106.156 11.2368C105.118 11.5564 103.996 11.7131 103.663 11.5853C103.33 11.4575 103.057 11.5498 103.057 11.7898C103.057 12.7317 100.533 12.2072 100.117 11.1787C99.8837 10.6026 99.3976 10.2443 99.0365 10.3824C98.6761 10.521 98.5491 10.803 98.7545 11.0092C99.4548 11.7123 97.7544 12.9832 95.7476 13.2566C94.6477 13.4067 93.7473 13.6546 93.7473 13.808C93.7473 14.1618 89.4437 15.1156 86.5477 15.4034C85.3309 15.5243 84.1771 15.8793 83.983 16.1927C83.7894 16.5061 83.0128 16.7626 82.258 16.7626C81.5026 16.7626 80.3788 17.0467 79.7597 17.394C79.1413 17.7416 77.5441 18.0789 76.2121 18.1441C74.8796 18.2092 73.4173 18.5457 72.9624 18.8917C71.4277 20.0604 67.9519 21.2987 66.2057 21.2987C64.6211 21.2987 61.9825 20.6298 61.1639 20.0204C60.9811 19.8843 60.3826 19.667 59.834 19.5375C59.2854 19.408 59.846 19.2872 61.0788 19.2694C62.948 19.2422 63.1901 19.1383 62.5311 18.6459C61.8947 18.1705 62.0577 17.9259 63.3643 17.3948C64.2574 17.0319 65.6977 16.6505 66.5648 16.5465C67.4319 16.443 68.2425 16.1709 68.3655 15.942C68.4885 15.7127 69.0172 15.5255 69.5405 15.5255C70.8538 15.5255 73.273 14.6397 74.327 13.7729C74.8091 13.3762 75.6642 13.0513 76.2268 13.0513C76.79 13.0513 78.0475 12.6995 79.0216 12.269C81.0864 11.3577 86.17 10.4278 87.113 10.789C87.47 10.9259 87.7626 10.7486 87.7626 10.3952C87.7626 10.0418 88.1796 9.75231 88.6889 9.75231C89.1983 9.75231 89.7961 9.45994 90.0175 9.10241C90.2669 8.69911 91.1127 8.48138 92.2498 8.52756C95.8373 8.67437 97.0722 8.51272 97.0722 7.89663C97.0722 7.03395 98.9028 7.11972 99.2739 7.99973C99.4947 8.52467 99.6037 8.55272 99.6722 8.10282C99.7999 7.26364 104.38 6.00921 106.223 6.30818C107.299 6.48261 107.712 6.36962 107.712 5.89952C107.712 5.05292 111.667 5.16096 112.902 6.04096C113.633 6.56179 113.658 6.51684 113.066 5.75683C112.229 4.68219 113.051 4.20879 115.064 4.60508C115.81 4.75189 116.865 4.64302 117.408 4.36343C118.193 3.95931 118.725 3.96384 119.992 4.38405C120.915 4.69044 122.095 4.77993 122.795 4.59601C123.459 4.42158 124.751 4.26982 125.666 4.2591C126.58 4.24879 127.742 3.88261 128.248 3.44591C128.97 2.82281 129.676 2.70322 131.531 2.88962C132.83 3.02034 134.262 2.93786 134.713 2.7057C135.164 2.47395 137.357 2.26776 139.586 2.24838C142.672 2.22116 143.982 2.39889 145.072 2.99271C146.376 3.7024 146.467 3.70694 146.078 3.04632C145.717 2.43312 145.923 2.36178 147.394 2.59065C148.529 2.76755 148.989 2.71229 148.71 2.43312C148.475 2.19683 148.71 1.90199 149.233 1.77745C149.756 1.65291 150.33 1.77291 150.508 2.04343C150.74 2.39518 151.035 2.3593 151.539 1.91724C152.175 1.35889 152.557 1.6092 152.338 2.44137C152.293 2.61621 153.005 2.64219 153.922 2.49951C155.145 2.30941 155.589 2.40467 155.589 2.85662C155.589 3.23023 156.398 3.54652 157.641 3.65992C159.342 3.81456 159.799 3.67518 160.306 2.84714C160.643 2.29786 160.749 1.67807 160.542 1.47023C160.335 1.2624 160.906 1.0925 161.812 1.0925C162.717 1.0925 163.572 1.30487 163.711 1.56384C163.901 1.916 164.321 1.91724 165.371 1.56879C167.104 0.993529 173.291 1.18363 174.357 1.84466C175.31 2.43559 178.198 2.49003 178.198 1.91724C178.198 1.69044 177.899 1.50487 177.533 1.50487C177.168 1.50487 176.868 1.33085 176.868 1.11848C176.868 0.544458 181.768 1.1259 182.387 1.77374C183.15 2.57085 183.973 2.45951 184.376 1.50487C184.755 0.605899 186.178 0.361775 186.178 1.19559C186.178 1.48961 187.008 1.71106 188.11 1.71106C189.172 1.71106 189.912 1.5824 189.755 1.42487C189.172 0.838889 196.566 1.19147 198.671 1.85002C200.6 2.45332 200.931 2.46116 201.487 1.91642C201.833 1.57662 202.121 1.4859 202.127 1.71477C202.132 1.94405 202.764 2.37415 203.531 2.67106C204.717 3.13044 205.113 3.10487 206.191 2.49992C206.887 2.10941 207.457 1.96301 207.457 2.17538C207.457 2.38776 209.753 2.55477 212.56 2.54652C215.794 2.53745 217.968 2.72137 218.497 3.0492C219.515 3.68054 222.751 3.73786 222.751 3.12508C222.751 2.88178 223.209 2.96673 223.768 3.31353C224.327 3.66034 225.228 3.83848 225.77 3.70941C226.442 3.54982 226.636 3.66858 226.38 4.08219C225.878 4.89333 231.02 5.35601 232.903 4.66899C233.933 4.29332 234.296 4.30034 234.53 4.70075C234.696 4.98446 235.259 5.21621 235.782 5.21621C236.306 5.21621 237.253 5.38116 237.888 5.58281C239.289 6.02776 243.034 7.03725 245.53 7.64302C246.538 7.88756 247.326 8.23024 247.28 8.40426C247.066 9.22611 247.444 9.34364 248.398 8.75147C249.152 8.28426 249.775 8.21498 250.638 8.50158C251.296 8.71972 252.024 8.78116 252.255 8.63807C252.486 8.49498 252.675 8.64343 252.675 8.96756C252.675 9.6422 256.446 10.7399 260.229 11.1667C261.967 11.3626 262.905 11.714 263.133 12.2537C263.318 12.6925 263.851 13.0513 264.318 13.0513C264.785 13.0513 265.338 13.3284 265.548 13.6674C265.757 14.0059 267.335 14.702 269.053 15.2138C270.881 15.7577 272.25 16.4595 272.351 16.9036C272.446 17.3214 272.743 17.7853 273.012 17.9346C273.281 18.0839 273.313 17.881 273.083 17.4843C272.853 17.0872 272.909 16.7626 273.206 16.7626C273.958 16.7626 281.268 21.1956 281.268 21.6517C281.268 21.8562 282.126 22.2439 283.174 22.5131C284.223 22.7824 285.494 23.5008 285.999 24.1094C286.505 24.7181 287.293 25.3647 287.75 25.5461C288.208 25.7276 288.583 26.0826 288.583 26.3354C288.583 27.0892 290.791 29.9585 291.37 29.9585C291.666 29.9585 291.908 30.2369 291.908 30.5771C291.908 30.9173 292.198 31.1956 292.552 31.1956C292.906 31.1956 293.023 31.474 292.813 31.8142C292.601 32.1565 292.794 32.4327 293.244 32.4327C293.736 32.4327 293.917 32.7655 293.703 33.2736C293.474 33.8171 293.925 34.5 294.98 35.2055C295.876 35.8055 296.459 36.5408 296.274 36.8389C296.09 37.1371 296.379 37.3812 296.916 37.3812C297.525 37.3812 297.892 37.7857 297.892 38.4567C297.892 39.401 297.688 39.5004 296.213 39.2711C294.563 39.0142 294.556 39.0233 295.798 39.7936C296.493 40.2245 297.438 40.655 297.898 40.7503C298.533 40.8814 298.49 41.0756 297.721 41.5519C296.981 42.0109 296.886 42.3791 297.371 42.9156C297.735 43.3202 298.098 44.142 298.176 44.7429C298.254 45.3433 298.542 46.2521 298.815 46.7627C299.123 47.3379 299.042 47.6905 298.602 47.6905C298.212 47.6905 297.892 47.9948 297.892 48.3668C297.892 48.7387 297.406 49.2637 296.81 49.5334C295.923 49.9359 295.87 50.187 296.515 50.9346C296.969 51.4608 297.09 52.2303 296.8 52.7577C296.525 53.2592 296.348 53.7899 296.408 53.9367C296.468 54.0839 295.854 54.1165 295.044 54.0093C293.605 53.8196 293.601 53.8303 294.861 54.4641C295.971 55.022 295.997 55.1132 295.048 55.1132C294.34 55.1132 294.081 55.335 294.327 55.7317C294.538 56.0719 294.347 56.3503 293.903 56.3503C292.696 56.3503 290.229 58.4806 290.46 59.3247C290.58 59.7651 290.253 60.0616 289.645 60.0616C289.087 60.0616 288.31 60.4328 287.918 60.8864C287.106 61.827 284.014 62.0101 282.692 61.1957C282.02 60.7825 281.937 60.8155 282.272 61.361C282.502 61.7359 283.268 62.1359 283.974 62.2505C285.473 62.4934 285.713 63.3606 284.281 63.3606C283.722 63.3606 283.456 63.6047 283.659 63.933C283.88 64.2889 283.27 64.7091 282.047 65.0451C280.965 65.3421 280.22 65.8097 280.39 66.0847C280.56 66.3602 280.005 66.721 279.155 66.8868C278.306 67.0526 276.569 67.6262 275.295 68.161C274.022 68.6963 272.6 69.1338 272.137 69.1338C271.046 69.1338 271.036 67.6175 272.125 67.3449C272.622 67.2208 272.487 67.1239 271.792 67.1045C271.096 67.0851 270.629 67.3697 270.629 67.8146C270.629 69.2464 269.037 70.7821 267.803 70.5416C267.042 70.3936 266.639 70.5342 266.639 70.947C266.639 71.6852 264.095 72.6625 262.649 72.4802C262.1 72.4109 261.862 72.4868 262.118 72.6489C263.121 73.2802 260.634 74.0542 257.238 74.1685C254.941 74.246 253.39 74.521 252.88 74.9421C252.338 75.3891 251.41 75.5342 249.948 75.401C248.172 75.2398 247.879 75.3215 248.225 75.8815C248.608 76.5008 247.661 76.787 245.84 76.6015C245.555 76.5726 245.15 76.8291 244.938 77.1713C244.438 77.9788 242.035 77.9821 242.035 77.1751C242.035 76.8349 241.586 76.5565 241.038 76.5565C240.489 76.5565 240.04 76.7421 240.04 76.9689C240.04 77.1957 239.264 77.3812 238.315 77.3812C237.138 77.3812 236.478 77.114 236.236 76.5396C235.803 75.5132 234.442 75.6967 234.35 76.794C234.19 78.681 234.006 79.0307 233.17 79.0307C232.684 79.0307 231.891 79.4876 231.409 80.046L230.533 81.0613L228.685 80.2456C226.841 79.4312 226.837 79.4311 226.412 80.2613C226.178 80.7186 225.475 81.0926 224.849 81.0926C224.224 81.0926 223.054 81.378 222.251 81.7272C220.933 82.2996 220.589 82.2971 218.736 81.7029C216.363 80.9421 216.458 80.0559 218.91 80.074C220.23 80.0835 220.59 79.881 220.59 79.1289C220.59 78.6023 220.403 78.2402 220.174 78.3239C219.946 78.4076 218.794 78.7322 217.616 79.0456C215.173 79.6951 214.406 80.5289 215.5 81.3462C216.074 81.7755 216.006 81.966 215.211 82.1553C214.638 82.2914 213.811 82.265 213.37 82.0963C212.882 81.9091 212.745 81.9639 213.017 82.2373C213.75 82.973 212.407 83.1755 210.103 82.6773C208.172 82.26 207.822 82.3074 206.832 83.1211C205.965 83.8345 204.937 84.0555 202.102 84.1392C198.02 84.2596 196.006 84.0472 196.503 83.5483C196.688 83.3631 196.535 83.0951 196.163 82.9524C195.773 82.8027 195.487 83.1388 195.487 83.7487C195.487 84.3289 195.374 84.8039 195.236 84.8039C195.098 84.8039 193.84 85.1004 192.44 85.4633C190.108 86.0674 189.969 86.0674 190.778 85.4633C191.559 84.8798 191.384 84.8039 189.251 84.8039C187.927 84.8039 186.843 84.9602 186.843 85.1516C186.843 85.3425 185.488 85.9314 183.832 86.4596C181.53 87.1936 180.637 87.3058 180.042 86.9367C179.138 86.3767 176.757 86.2971 175.838 86.7961C174.866 87.3235 169.603 88.1705 168.921 87.9091C168.588 87.7817 168.108 87.8856 167.854 88.14C167.546 88.4493 167.252 88.4625 166.97 88.1796C166.378 87.5858 162.904 87.0897 162.904 87.599C162.904 87.9594 158.376 88.6411 155.589 88.7004C155.041 88.712 154.197 88.8794 153.715 89.0728C152.39 89.6031 147.724 89.7887 147.267 89.3289C147.007 89.0691 146.394 89.0815 145.544 89.3635C143.547 90.0266 136.813 90.0728 136.464 89.4258C136.243 89.0167 135.959 89.0044 135.243 89.3734C134.528 89.7417 134.31 89.7338 134.31 89.34C134.31 88.9305 134.109 88.9305 133.313 89.34C132.764 89.6225 132.315 90.1318 132.315 90.472C132.315 90.9751 132.129 90.9945 131.318 90.5771C130.769 90.2947 130.321 90.2019 130.321 90.371C130.321 90.54 129.926 90.4753 129.444 90.227C128.798 89.8947 128.197 89.9371 127.16 90.387C126.25 90.7825 125.604 90.8489 125.331 90.5747C125.099 90.3421 124.617 90.2629 124.261 90.3998C123.904 90.5363 123.189 90.4303 122.673 90.1644C121.943 89.7891 121.397 89.827 120.226 90.3351C118.035 91.2868 115.764 91.1668 115.047 90.0617C114.627 89.4134 114.433 89.3396 114.403 89.8167C114.359 90.5347 110.852 90.9912 105.384 90.9907C103.921 90.9903 100.29 90.9941 97.3142 90.999C92.0803 91.0073 91.8901 90.9734 91.4831 89.9677C91.0403 88.8736 89.7575 88.5227 89.7575 89.4959C89.7575 90.3462 87.9721 91.1714 87.603 90.4914C87.369 90.06 87.1077 90.0642 86.2339 90.5112C85.3688 90.9541 84.6805 90.9672 82.7734 90.5767C81.4641 90.3087 79.9566 90.1936 79.4233 90.3202C78.7344 90.4844 78.4531 90.2559 78.4531 89.5334C78.4531 88.3697 77.9889 88.2914 76.1649 89.147C74.3742 89.987 71.1384 89.9458 71.1384 89.0835C71.1384 88.5685 70.9316 88.5206 70.2414 88.8761C69.1947 89.4147 62.4427 89.1483 59.6724 88.4592C58.669 88.2093 57.2586 88.1009 56.5384 88.2176C55.8176 88.3347 54.8813 88.171 54.4571 87.8543C54.0335 87.5376 52.9004 87.274 51.9395 87.2691C50.978 87.2642 48.9013 86.8967 47.324 86.453C45.7467 86.0089 44.2505 85.6802 43.9991 85.7219C43.1726 85.8592 38.555 84.7474 38.555 84.411C38.555 84.2303 37.7139 83.978 36.6858 83.8505C35.5341 83.7074 34.5134 83.2056 34.0259 82.5425C33.5911 81.9503 33.2592 81.4287 33.2878 81.3825C33.3164 81.3363 33.4913 81.067 33.6755 80.7833ZM34.8751 16.6179C35.7761 15.8806 35.8586 15.8847 37.3381 16.7395C38.6362 17.4892 38.7193 17.6835 37.8814 18.0117C36.469 18.5655 35.8952 18.5024 35.8952 17.7936C35.8952 17.0447 34.8079 16.9725 34.3405 17.6905C34.1563 17.9742 33.9914 18.0204 33.9741 17.7936C33.9568 17.5668 34.3624 17.0377 34.8751 16.6179ZM41.6691 13.3865C41.8613 13.6839 41.8373 14.0397 41.6165 14.1766C41.3958 14.3135 41.2388 14.0703 41.2674 13.6356C41.2994 13.1552 41.457 13.0575 41.6691 13.3865ZM56.043 22.8451C56.8809 21.5305 58.5061 21.3705 59.6352 22.4913C60.7856 23.6336 59.8746 23.8909 58.4435 22.8274C57.5166 22.1387 57.2127 22.0727 57.1961 22.5564C57.1841 22.9078 57.5332 23.4183 57.9721 23.6905C58.5925 24.0752 58.3711 24.1853 56.9746 24.1853C55.9872 24.1853 55.2111 24.1387 55.2497 24.0822C55.2889 24.0257 55.646 23.469 56.043 22.8451ZM64.4888 19.443C64.8545 19.5832 65.1537 19.5012 65.1537 19.2612C65.1537 19.0212 64.8545 18.8245 64.4888 18.8245C64.123 18.8245 63.8238 18.9061 63.8238 19.0063C63.8238 19.1065 64.123 19.3028 64.4888 19.443ZM70.806 19.2369C71.8406 19.2369 72.4684 19.003 72.4684 18.6183C72.4684 18.2781 72.7856 17.9997 73.1726 17.9997C73.5596 17.9997 73.6826 17.8051 73.4452 17.5667C73.1786 17.2991 72.5628 17.4566 71.832 17.9791C71.1817 18.4443 70.3112 18.8245 69.8969 18.8245C69.4827 18.8245 69.1435 18.9173 69.1435 19.0307C69.1435 19.1441 69.8916 19.2369 70.806 19.2369ZM76.4987 16.3094C77.2954 15.5103 76.671 15.3148 75.4042 15.9672C74.6308 16.3647 74.5524 16.575 75.1322 16.6946C75.5804 16.7874 76.1955 16.6138 76.4987 16.3094ZM124.461 88.3846C124.991 88.253 124.833 88.1553 124.059 88.1355C123.358 88.1178 122.965 88.2151 123.186 88.352C123.407 88.4889 123.981 88.5037 124.461 88.3846ZM156.254 88.5153C156.62 88.5153 156.919 88.2369 156.919 87.8967C156.919 87.5565 156.62 87.2782 156.254 87.2782C155.889 87.2782 155.589 87.5565 155.589 87.8967C155.589 88.2369 155.889 88.5153 156.254 88.5153ZM161.202 4.39147C161.364 4.39147 161.68 4.2059 161.907 3.9791C162.133 3.7523 162 3.56673 161.613 3.56673C161.226 3.56673 160.909 3.7523 160.909 3.9791C160.909 4.2059 161.041 4.39147 161.202 4.39147ZM191.165 84.3916C191.83 84.3916 192.163 83.9792 192.163 83.1545C192.163 82.474 191.884 81.9173 191.544 81.9173C191.011 81.9173 190.775 82.3149 190.258 84.0823C190.208 84.2526 190.616 84.3916 191.165 84.3916ZM199.145 82.8914C199.693 83.0217 200.142 82.9487 200.142 82.7293C200.142 82.5095 199.693 82.3297 199.145 82.3297C198.596 82.3297 198.147 82.4027 198.147 82.4918C198.147 82.5808 198.596 82.7606 199.145 82.8914ZM210.907 81.3742C211.437 81.2427 211.279 81.145 210.504 81.1252C209.803 81.1074 209.411 81.2048 209.632 81.3417C209.853 81.4786 210.427 81.4934 210.907 81.3742ZM223.316 79.6353C223.711 79.4027 222.711 78.6184 222.021 78.6184C221.662 78.6184 221.754 78.8782 222.226 79.1953C222.698 79.5128 223.189 79.7107 223.316 79.6353ZM232.892 6.31395C233.349 6.19972 232.975 6.10611 232.061 6.10611C231.146 6.10611 230.773 6.19972 231.229 6.31395C231.687 6.42859 232.435 6.42859 232.892 6.31395ZM236.715 77.7936C237.61 77.7936 238.045 78.0687 238.045 78.6328C238.045 79.3441 237.842 79.4048 236.715 79.0307C235.984 78.7878 235.385 78.4101 235.385 78.1916C235.385 77.9726 235.984 77.7936 236.715 77.7936ZM237.42 6.8657C237.764 6.8657 238.045 6.68013 238.045 6.45333C238.045 6.22652 237.578 6.04096 237.009 6.04096C236.439 6.04096 236.157 6.22652 236.383 6.45333C236.609 6.68013 237.075 6.8657 237.42 6.8657ZM239.18 76.5565C240.751 76.5565 239.75 75.5388 238.025 75.3829C236.647 75.2584 236.558 75.3235 237.327 75.8984C237.812 76.2604 238.645 76.5565 239.18 76.5565ZM277.15 65.6394C277.355 65.5128 277.151 65.18 276.696 64.9C276.039 64.4959 275.963 64.5433 276.323 65.1309C276.574 65.5375 276.945 65.7664 277.15 65.6394ZM287.679 28.8929C288.592 29.1103 288.633 29.0496 287.93 28.5247C286.973 27.8092 286.588 27.7346 286.588 28.2649C286.588 28.4674 287.079 28.7498 287.679 28.8929ZM293.547 50.5771C293.716 50.5771 294.182 50.1598 294.581 49.6493C295.277 48.7581 295.265 48.7532 294.272 49.5218C293.185 50.3631 293.038 50.5771 293.547 50.5771ZM295.272 52.2266C295.616 52.2266 295.897 52.041 295.897 51.8142C295.897 51.5874 295.431 51.4018 294.861 51.4018C294.291 51.4018 294.009 51.5874 294.235 51.8142C294.461 52.041 294.927 52.2266 295.272 52.2266Z" fill="#F5BD4F"/>
</svg>
